<?xml version="1.0" encoding="UTF-8"?>
<svg id="Layer_2" data-name="Layer 2" xmlns="http://www.w3.org/2000/svg" viewBox="0 0 538.05 538.06">
  <defs>
    <style>
      .cls-1 {
        fill: #34b447;
      }

      .cls-1, .cls-2 {
        fill-rule: evenodd;
      }

      .cls-2 {
        fill: #fff;
      }
    </style>
  </defs>
  <g id="Layer_1-2" data-name="Layer 1">
    <g>
      <path class="cls-1" d="M42.95,0h452.17c23.62,0,42.94,19.32,42.94,42.94v452.17c0,23.62-19.32,42.95-42.94,42.95H42.95c-23.62,0-42.95-19.33-42.95-42.95V42.94C0,19.32,19.32,0,42.95,0"/>
      <path class="cls-2" d="M186.71,421.75l-96.97,26.3,27.49-93.4c-15.55-26.73-23.75-57.04-23.75-88.21,0-97.82,79.85-176.42,177.42-176.42s177.43,78.6,177.43,176.42-79.86,176.41-177.43,176.41c-29.51,0-58.35-7.23-84.18-21.1"/>
      <path class="cls-1" d="M270.89,121.4c80.65,0,146.03,64.93,146.03,145.03s-65.38,145.02-146.03,145.02c-29.39,0-56.74-8.62-79.65-23.46l-55.54,15.06,15.68-53.28c-16.71-23.58-26.52-52.32-26.52-83.34,0-80.1,65.38-145.03,146.03-145.03"/>
      <path class="cls-2" d="M194.13,264.02c-8.65-14.72-14.28-31.91-12.06-43.41,5.06-26.21,18.98-32.45,22.78-33.68.58-.19,1.11-.26,1.72-.24l13.3.4c2,.06,3.68,1.18,4.49,3.01l17.1,38.86c.78,1.76.55,3.68-.63,5.2-4.51,5.79-9.03,10.95-13.54,16.73-1.27,1.64-1.44,3.77-.44,5.59,14.64,26.5,37.27,42.98,64.52,54.98,2.13.94,4.53.36,6-1.45,5.26-6.48,10.8-13.53,16.07-20.02,1.49-1.84,3.97-2.41,6.12-1.39,12.89,6.08,24.77,12.57,37.68,18.64,1.86.88,2.96,2.66,2.92,4.7-.09,4.78.3,14.41-5.58,22.56-4.84,6.7-13.99,12.23-25.61,14.73-24.64,5.29-55.71-8-84.63-28.46-6.03-4.26-11.62-8.95-16.78-13.87-14.44-13.77-25.51-29.4-33.43-42.88"/>
    </g>
  </g>
</svg>